<svg lang="id" xmlns="http://www.w3.org/2000/svg" viewBox="0 0 880 367.4" width="880" height="367.4" font-family="'Zen Kaku Gothic New','Hiragino Sans','Noto Sans JP',sans-serif" role="img" aria-label="Tren bulanan otonomi operasional dan porsi perubahan kode yang ditulis AI">
<rect width="880" height="367.4" fill="#ffffff"/>
<text x="62" y="27" fill="#14181d" font-size="17" font-weight="700" textLength="794" lengthAdjust="spacingAndGlyphs">Otonomi operasional naik 10 kali lipat dalam 5 bulan. Kepengarangan kode adalah metrik terpisah.</text>
<text x="62" y="46" fill="#5a6570" font-size="12" textLength="794" lengthAdjust="spacingAndGlyphs">Otomatisasi total, termasuk tugas belum dimulai / Pengamatan 2026-08 dan sebagian 09; bulan sebelumnya direkonstruksi dari bukti pertama</text>
<line x1="62" y1="280.0" x2="748" y2="280.0" stroke="#e5e7e6" stroke-width="1"/>
<text x="52" y="284.0" fill="#8b959f" font-size="11" text-anchor="end" font-variant-numeric="tabular-nums">0%</text>
<line x1="62" y1="224.5" x2="748" y2="224.5" stroke="#e5e7e6" stroke-width="1"/>
<text x="52" y="228.5" fill="#8b959f" font-size="11" text-anchor="end" font-variant-numeric="tabular-nums">25%</text>
<line x1="62" y1="169.0" x2="748" y2="169.0" stroke="#e5e7e6" stroke-width="1"/>
<text x="52" y="173.0" fill="#8b959f" font-size="11" text-anchor="end" font-variant-numeric="tabular-nums">50%</text>
<line x1="62" y1="113.5" x2="748" y2="113.5" stroke="#e5e7e6" stroke-width="1"/>
<text x="52" y="117.5" fill="#8b959f" font-size="11" text-anchor="end" font-variant-numeric="tabular-nums">75%</text>
<line x1="62" y1="58.0" x2="748" y2="58.0" stroke="#e5e7e6" stroke-width="1"/>
<text x="52" y="62.0" fill="#8b959f" font-size="11" text-anchor="end" font-variant-numeric="tabular-nums">100%</text>
<text x="62.0" y="300" fill="#8b959f" font-size="11" text-anchor="middle">Bln 01</text>
<text x="147.8" y="300" fill="#8b959f" font-size="11" text-anchor="middle">Bln 02</text>
<text x="233.5" y="300" fill="#8b959f" font-size="11" text-anchor="middle">Bln 03</text>
<text x="319.3" y="300" fill="#5a6570" font-size="11" text-anchor="middle" textLength="76" lengthAdjust="spacingAndGlyphs">Bln 04 · Rilis</text>
<text x="405.0" y="300" fill="#8b959f" font-size="11" text-anchor="middle">Bln 05</text>
<text x="490.8" y="300" fill="#8b959f" font-size="11" text-anchor="middle">Bln 06</text>
<text x="576.5" y="300" fill="#8b959f" font-size="11" text-anchor="middle">Bln 07</text>
<text x="662.3" y="300" fill="#8b959f" font-size="11" text-anchor="middle">Bln 08</text>
<text x="748.0" y="300" fill="#8b959f" font-size="11" text-anchor="middle">Bln 09</text>
<polygon points="62,280 62.0,278.8 147.8,276.5 233.5,261.5 319.3,261.5 405.0,254.6 490.8,252.3 576.5,237.2 662.3,126.2 748.0,90.4 748,280" fill="#2a78d6" fill-opacity="0.1"/>
<polyline points="62.0,280.0 147.8,60.6 233.5,58.0 319.3,58.0 405.0,85.7 490.8,58.0 576.5,141.4 662.3,106.6 748.0,251.3" fill="none" stroke="#eb6834" stroke-width="2" stroke-linejoin="round" stroke-linecap="round"/>
<polyline points="62.0,278.8 147.8,276.5 233.5,261.5 319.3,261.5 405.0,254.6 490.8,252.3 576.5,237.2 662.3,126.2 748.0,90.4" fill="none" stroke="#2a78d6" stroke-width="2" stroke-linejoin="round" stroke-linecap="round"/>
<circle cx="748.0" cy="90.4" r="4.5" fill="#2a78d6" stroke="#ffffff" stroke-width="2"/>
<circle cx="748.0" cy="251.3" r="4.5" fill="#eb6834" stroke="#ffffff" stroke-width="2"/>
<circle cx="319.3" cy="261.5" r="4.5" fill="#2a78d6" stroke="#ffffff" stroke-width="2"/>
<text x="760" y="94.4" fill="#14181d" font-size="13" font-weight="700" font-variant-numeric="tabular-nums">85.4%</text>
<text x="760" y="110.4" fill="#5a6570" font-size="10.5" textLength="96" lengthAdjust="spacingAndGlyphs">Tugas operasional</text>
<text x="760" y="255.3" fill="#14181d" font-size="13" font-weight="700" font-variant-numeric="tabular-nums">12.9%</text>
<text x="760" y="271.3" fill="#5a6570" font-size="10.5">Perubahan kode</text>
<text x="319.3" y="249.5" fill="#14181d" font-size="12" font-weight="700" text-anchor="middle" font-variant-numeric="tabular-nums">8.3%</text>
<line x1="62" y1="314" x2="80" y2="314" stroke="#2a78d6" stroke-width="2" stroke-linecap="round"/>
<text x="86" y="318" fill="#5a6570" font-size="11" textLength="175" lengthAdjust="spacingAndGlyphs">Otonomi operasional (rekonstruksi)</text>
<line x1="272" y1="314" x2="290" y2="314" stroke="#eb6834" stroke-width="2" stroke-linecap="round"/>
<text x="296" y="318" fill="#5a6570" font-size="11">Porsi kode yang ditulis AI (diukur)</text>
<text x="62" y="342" fill="#5a6570" font-size="11"><tspan x="62" y="342">3 kasus pada bulan 9 mencakup kesiapan operasional yang diuji dan pemantauan produksi. Pengembalian dana nyata, pemulihan</tspan>
<tspan x="62" y="357.4">penagihan, dan pemberitahuan insiden pertama belum diamati.</tspan></text>
</svg>
