<svg lang="tr" xmlns="http://www.w3.org/2000/svg" viewBox="0 0 900 447" role="img" aria-labelledby="title desc">
<title id="title">23 günlük AI operasyonları: başlatılan 28 görevin sonuçları</title><desc id="desc">2026-8-11 – 9-2 JST · Toplam 41 görevden başlanmamış 13 görev hariç · simplememofast.com. Yayımlanan: 19 / 28; Başarısız: 6 / 28; Çıktı yok: 2 / 28; İptal: 1 / 28</desc>
<rect width="900" height="447" rx="14" fill="#122139"/>
<g font-family="system-ui, sans-serif" fill="#eef3fc"><text x="28" y="43" font-size="23" font-weight="700">23 günlük AI operasyonları: başlatılan 28 görevin sonuçları</text>
<text x="28" y="83" font-size="18">Yayımlanan</text>
<rect x="28" y="96" width="700" height="20" rx="4" fill="#30435e"/>
<rect x="28" y="96" width="475.00" height="20" rx="4" fill="#99ccff"/>
<text x="750" y="113" font-size="19">19/28</text>
<text x="28" y="161" font-size="18">Başarısız</text>
<rect x="28" y="174" width="700" height="20" rx="4" fill="#30435e"/>
<rect x="28" y="174" width="150.00" height="20" rx="4" fill="#99ccff"/>
<text x="750" y="191" font-size="19">6/28</text>
<text x="28" y="239" font-size="18">Çıktı yok</text>
<rect x="28" y="252" width="700" height="20" rx="4" fill="#30435e"/>
<rect x="28" y="252" width="50.00" height="20" rx="4" fill="#99ccff"/>
<text x="750" y="269" font-size="19">2/28</text>
<text x="28" y="317" font-size="18">İptal</text>
<rect x="28" y="330" width="700" height="20" rx="4" fill="#30435e"/>
<rect x="28" y="330" width="25.00" height="20" rx="4" fill="#99ccff"/>
<text x="750" y="347" font-size="19">1/28</text>
<text x="28" y="427" font-size="14" fill="#becbdf">2026-8-11 – 9-2 JST · 41 görevden başlanmamış 13 görev hariç · simplememofast.com</text></g></svg>
