<svg lang="ar" xmlns="http://www.w3.org/2000/svg" viewBox="0 0 900 447" role="img" aria-labelledby="title desc">
<title id="title">عمليات بالذكاء الاصطناعي خلال 23 يومًا: نتائج 28 مهمة بدأ تنفيذها</title><desc id="desc">من 2026-8-11 إلى 9-2 بتوقيت اليابان · استُبعدت 13 مهمة لم تبدأ من إجمالي 41 · simplememofast.com. نُشرت: 19 من 28؛ فشلت: 6 من 28؛ بلا مخرجات: 2 من 28؛ أُلغيت: 1 من 28</desc>
<rect width="900" height="447" rx="14" fill="#122139"/>
<g font-family="system-ui, sans-serif" fill="#eef3fc"><text x="876" y="43" font-size="23" font-weight="700" direction="rtl" unicode-bidi="plaintext" text-anchor="start">عمليات بالذكاء الاصطناعي خلال 23 يومًا: نتائج 28 مهمة بدأ تنفيذها</text>
<text x="876" y="83" font-size="18" direction="rtl" unicode-bidi="plaintext" text-anchor="start">نُشرت</text>
<rect x="28" y="96" width="700" height="20" rx="4" fill="#30435e"/>
<rect x="28" y="96" width="475.00" height="20" rx="4" fill="#99ccff"/>
<text x="750" y="113" font-size="19">19/28</text>
<text x="876" y="161" font-size="18" direction="rtl" unicode-bidi="plaintext" text-anchor="start">فشلت</text>
<rect x="28" y="174" width="700" height="20" rx="4" fill="#30435e"/>
<rect x="28" y="174" width="150.00" height="20" rx="4" fill="#99ccff"/>
<text x="750" y="191" font-size="19">6/28</text>
<text x="876" y="239" font-size="18" direction="rtl" unicode-bidi="plaintext" text-anchor="start">بلا مخرجات</text>
<rect x="28" y="252" width="700" height="20" rx="4" fill="#30435e"/>
<rect x="28" y="252" width="50.00" height="20" rx="4" fill="#99ccff"/>
<text x="750" y="269" font-size="19">2/28</text>
<text x="876" y="317" font-size="18" direction="rtl" unicode-bidi="plaintext" text-anchor="start">أُلغيت</text>
<rect x="28" y="330" width="700" height="20" rx="4" fill="#30435e"/>
<rect x="28" y="330" width="25.00" height="20" rx="4" fill="#99ccff"/>
<text x="750" y="347" font-size="19">1/28</text>
<text x="876" y="427" font-size="14" fill="#becbdf" direction="rtl" unicode-bidi="plaintext" text-anchor="start">2026-8-11 إلى 9-2 بتوقيت اليابان · استُبعدت 13 مهمة لم تبدأ من 41 · simplememofast.com</text></g></svg>
